<?xml version="1.0" encoding="UTF-8"?><svg id="Layer_1" xmlns="http://www.w3.org/2000/svg" viewBox="0 0 256.05 156.45"><g><path d="M125.07,97.08c.23-16.92,.47-33.83,.7-50.75l-11.25,11.25c16.78-.14,33.56-.29,50.33-.43,14.47-.12,14.51-22.62,0-22.5-16.78,.14-33.56,.29-50.33,.43-6.14,.05-11.16,5.11-11.25,11.25-.23,16.92-.47,33.83-.7,50.75-.2,14.48,22.3,14.49,22.5,0h0Z" style="fill:#787878;"/><g><line x1="99" y1="97.54" x2="102.38" y2="97.48" style="fill:#dbdada;"/><path d="M99,120.04c1.13-.02,2.25-.04,3.38-.06,3.1,.12,5.99-.53,8.67-1.94,2.79-.91,5.2-2.46,7.24-4.65,2.19-2.04,3.74-4.45,4.65-7.24,1.41-2.68,2.05-5.57,1.94-8.67l-.8-5.98c-1.07-3.81-3-7.12-5.79-9.93l-4.55-3.52c-3.51-2.04-7.29-3.06-11.36-3.07-1.13,.02-2.25,.04-3.38,.06-3.1-.12-5.99,.53-8.67,1.94-2.79,.91-5.2,2.46-7.24,4.65-2.19,2.04-3.74,4.45-4.65,7.24-1.41,2.68-2.05,5.57-1.94,8.67l.8,5.98c1.07,3.81,3,7.12,5.79,9.93l4.55,3.52c3.51,2.04,7.29,3.06,11.36,3.07h0Z" style="fill:#787878;"/></g></g><g><line x1="194.86" y1="75.02" x2="208.21" y2="74.9" style="fill:#dbdada;"/><path d="M194.86,86.27l13.35-.11c5.88-.05,11.52-5.14,11.25-11.25s-4.94-11.3-11.25-11.25c-4.45,.04-8.9,.08-13.35,.11-5.88,.05-11.52,5.14-11.25,11.25s4.94,11.3,11.25,11.25h0Z" style="fill:#787878;"/></g><g><line x1="44.34" y1="74.64" x2="57.69" y2="74.52" style="fill:#dbdada;"/><path d="M44.34,85.89l13.35-.11c5.88-.05,11.52-5.14,11.25-11.25s-4.94-11.3-11.25-11.25c-4.45,.04-8.9,.08-13.35,.11-5.88,.05-11.52,5.14-11.25,11.25s4.94,11.3,11.25,11.25h0Z" style="fill:#787878;"/></g><path d="M149.74,116.54c14.48,0,14.5-22.5,0-22.5s-14.5,22.5,0,22.5h0Z" style="fill:#787878;"/><path d="M209.28,57.55c14.48,0,14.5-22.5,0-22.5s-14.5,22.5,0,22.5h0Z" style="fill:#787878;"/><path d="M210.91,133.94c-40.05,0-80.09,0-120.14,0-15.22,0-30.46,.22-45.67,0-12.57-.18-22.37-9.89-22.58-22.46-.14-8.56,0-17.13,0-25.69V50.31c0-11.23,2.33-20,12.6-25.26,4.82-2.47,10.46-2.22,16.8-2.22h26.35c43.64,0,87.28-.12,130.91,0,9.87,.03,18.52,4.47,22.41,13.64,2.81,6.64,1.7,16.56,1.7,24.78v38.41c0,9.96,1.09,18.46-4.95,26.08-3.83,4.83-10.8,8.06-17.43,8.2-14.46,.29-14.51,22.79,0,22.5,23.45-.47,42.53-18.07,44.7-41.44,.85-9.14,.18-18.59,.18-27.75V49.77c0-16.12-4.99-30.62-18.31-40.62C221.8-2.64,200.04,.33,181.53,.33c-27.02,0-54.03,0-81.05,0-18.27,0-36.54-.12-54.81,0C28.61,.45,12.27,9.62,4.73,25.25-.59,36.29,.02,47.71,.02,59.54v40.12c0,12.31-.24,24.31,6.57,35.29,8.6,13.86,23.48,21.42,39.61,21.49,6.65,.03,13.31,0,19.96,0H210.91c14.48,0,14.5-22.5,0-22.5Z" style="fill:#787878;"/><path d="M208.08,116.53c14.48,0,14.5-22.5,0-22.5s-14.5,22.5,0,22.5h0Z" style="fill:#787878;"/><path d="M164.32,86.29c14.48,0,14.5-22.5,0-22.5s-14.5,22.5,0,22.5h0Z" style="fill:#787878;"/><path d="M45.02,56.52c14.48,0,14.5-22.5,0-22.5s-14.5,22.5,0,22.5h0Z" style="fill:#787878;"/></svg>