<?xml version="1.0" encoding="UTF-8"?><svg id="Layer_1" xmlns="http://www.w3.org/2000/svg" viewBox="0 0 1344.41 196.84"><g><path d="M1209.69,122.4c.23-16.92,.47-33.83,.7-50.75l-11.25,11.25c16.78-.14,33.56-.29,50.33-.43,14.47-.12,14.51-22.62,0-22.5-16.78,.14-33.56,.29-50.33,.43-6.14,.05-11.16,5.11-11.25,11.25-.23,16.92-.47,33.83-.7,50.75-.2,14.48,22.3,14.49,22.5,0h0Z" style="fill:#787878;"/><g><line x1="1183.62" y1="122.86" x2="1187" y2="122.8" style="fill:#dbdada;"/><path d="M1183.62,145.36c1.13-.02,2.25-.04,3.38-.06,3.1,.12,5.99-.53,8.67-1.94,2.79-.91,5.2-2.46,7.24-4.65,2.19-2.04,3.74-4.45,4.65-7.24,1.41-2.68,2.05-5.57,1.94-8.67l-.8-5.98c-1.07-3.81-3-7.12-5.79-9.93l-4.55-3.52c-3.51-2.04-7.29-3.06-11.36-3.07-1.13,.02-2.25,.04-3.38,.06-3.1-.12-5.99,.53-8.67,1.94-2.79,.91-5.2,2.46-7.24,4.65-2.19,2.04-3.74,4.45-4.65,7.24-1.41,2.68-2.05,5.57-1.94,8.67l.8,5.98c1.07,3.81,3,7.12,5.79,9.93l4.55,3.52c3.51,2.04,7.29,3.06,11.36,3.07h0Z" style="fill:#787878;"/></g></g><g><line x1="1279.48" y1="100.34" x2="1292.83" y2="100.23" style="fill:#dbdada;"/><path d="M1279.48,111.59l13.35-.11c5.88-.05,11.52-5.14,11.25-11.25s-4.94-11.3-11.25-11.25c-4.45,.04-8.9,.08-13.35,.11-5.88,.05-11.52,5.14-11.25,11.25s4.94,11.3,11.25,11.25h0Z" style="fill:#787878;"/></g><g><line x1="1128.96" y1="99.96" x2="1142.31" y2="99.85" style="fill:#dbdada;"/><path d="M1128.96,111.21l13.35-.11c5.88-.05,11.52-5.14,11.25-11.25s-4.94-11.3-11.25-11.25c-4.45,.04-8.9,.08-13.35,.11-5.88,.05-11.52,5.14-11.25,11.25s4.94,11.3,11.25,11.25h0Z" style="fill:#787878;"/></g><path d="M1234.36,141.86c14.48,0,14.5-22.5,0-22.5s-14.5,22.5,0,22.5h0Z" style="fill:#787878;"/><path d="M1293.9,82.87c14.48,0,14.5-22.5,0-22.5s-14.5,22.5,0,22.5h0Z" style="fill:#787878;"/><path d="M1295.53,155.51c-40.05,0-80.09,0-120.14,0-15.22,0-30.46,.22-45.67,0-.07,0-.13,0-.2,0-.93-.02-1.84-.06-2.76-.11,3.35,.18-.75-.19-1.34-.33-.86-.21-1.69-.51-2.55-.74-3.69-.96,1.99,1.44-1.24-.53-.74-.45-1.52-.83-2.26-1.28-.89-.55-3.02-2.42-1.14-.71-.71-.64-4.75-5.08-2.91-2.64-1.3-1.73-2.38-3.63-3.31-5.58,1.44,3-.2-.85-.34-1.34-.25-.86-.43-1.72-.64-2.59-.97-4.04,0,1.8-.08-.72-.02-.72-.06-1.43-.07-2.15-.14-8.56,0-17.13,0-25.69v-35.48c0-1.39,0-2.78,0-4.17,0-.28,0-.57,0-.85,0-.26,0-.49,.01-.77,0-.69,.04-1.38,.1-2.07-.29,1.73-.28,1.72,.04-.03,.22-.86,.39-1.73,.64-2.59,.14-.49,1.78-4.34,.34-1.34,.85-1.76,1.82-3.44,2.94-5.05,1.32-1.89-2.39,2.14,.49-.48,.79-.72,1.53-1.52,2.31-2.26,1.72-1.63-2.87,1.64,.53-.44,1.11-.68,2.24-1.32,3.35-1.99,3.39-2.06-1.62,.44,.62-.31,1.05-.35,2.09-.69,3.17-.96-.01,0,4.18-.63,1.98-.43s2.23,0,2.11,0c.29,0,.57,0,.86,0,2.06-.01,4.11,0,6.17,0h26.35c43.64,0,87.28-.12,130.91,0,.49,0,.99,0,1.48,0,.08,0,.16,0,.24,0,1.91,.03,.87,0,2.76,.11-3.16-.18,.75,.19,1.34,.33,1.29,.31,2.55,.72,3.79,1.18-.68-.25-2.3-1.31,0,.09,.92,.56,1.87,1.09,2.8,1.64,.72,.42,2.71,2.28,.59,.36,.8,.72,1.55,1.5,2.34,2.22,.55,.5,2.33,2.77,.57,.42,.52,.69,1,1.42,1.45,2.15,.26,.42,2.27,4.38,1.62,2.85-.86-2.02,.61,1.99,.59,1.92,.31,1.07,.55,2.15,.76,3.25,.46,2.4,.07-3.45,0,.74,0-.01,.02,.94,.03,1.41,.02,.87,0,1.75,0,2.62v51.81c0,3.7,.02,7.39,0,11.09,0,1.25-.34,5.1,.1,2.28-.33,2.19-.95,4.34-1.72,6.42,1.15-3.11-.46,.7-.71,1.14-.64,1.12-1.34,2.23-2.11,3.26,1.68-2.24,.29-.42-.12-.05-.95,.87-1.83,1.82-2.79,2.68,1.96-1.77,.54-.35-.05,0-1.11,.68-2.24,1.32-3.35,1.99-.54,.33-2.59,1.04,0,.09-1.24,.46-2.5,.86-3.79,1.18-.87,.21-1.75,.39-2.63,.54,3.44-.56-1-.11-1.47-.1-7.84,.16-15.37,6.79-15,15s6.6,15.17,15,15c25.58-.52,46.14-19.75,48.45-45.19,.83-9.15,.18-18.58,.18-27.75v-37.48c0-4.72-.16-9.29-.98-13.99-2.11-12.11-9.49-22.61-19.19-29.87-16.35-12.22-38.59-9.32-57.84-9.32h-81.05c-18.27,0-36.54-.12-54.81,0s-36.05,9.99-44.18,26.77c-5.67,11.71-5.22,23.64-5.22,36.19v40.12c0,12.97-.09,25.62,7.09,37.18,9.3,14.98,25.38,23.27,42.84,23.34,6.65,.03,13.31,0,19.96,0h144.75c7.85,0,15.36-6.9,15-15s-6.59-15-15-15Z" style="fill:#787878;"/><text transform="translate(2.5 147.42)" style="fill:#787878; font-family:Nunito-Bold, Nunito; font-size:170px; font-variation-settings:&apos;wght&apos; 700; stroke:#787878; stroke-miterlimit:10; stroke-width:5px;"><tspan x="0" y="0" style="letter-spacing:-.01em;">l</tspan><tspan x="52.02" y="0">yri</tspan><tspan x="251.43" y="0" style="letter-spacing:0em;">c</tspan><tspan x="332" y="0" style="letter-spacing:0em;">t</tspan><tspan x="398.64" y="0" style="letter-spacing:0em;">ype</tspan><tspan x="682.19" y="0" style="letter-spacing:-.02em;">.</tspan><tspan x="721.29" y="0" style="letter-spacing:0em;">c</tspan><tspan x="799.83" y="0">om</tspan></text><path d="M1292.7,141.85c14.48,0,14.5-22.5,0-22.5s-14.5,22.5,0,22.5h0Z" style="fill:#787878;"/><path d="M1248.94,111.61c14.48,0,14.5-22.5,0-22.5s-14.5,22.5,0,22.5h0Z" style="fill:#787878;"/><path d="M1129.63,81.84c14.48,0,14.5-22.5,0-22.5s-14.5,22.5,0,22.5h0Z" style="fill:#787878;"/></svg>